PathFileType	4	(X/Y/Z)	D:\TRACE\v60_Jaco2_6-2-23\JustBodyDRS_Motion2_1-v60.trc
DataRate	CameraRate	NumFrames	NumMarkers	Units	OrigDataRate	OrigDataStartFrame	OrigNumFrames
100.00	100.00	      21	9	mm	100.00	877	      7009
Frame#	Time	front left toe			Front right toe			aft left toe			aft right toe			Arm			FL body			FR body			AL Body			AR Body			
		X1	Y1	Z1	X2	Y2	Z2	X3	Y3	Z3	X4	Y4	Z4	X5	Y5	Z5	X6	Y6	Z6	X7	Y7	Z7	X8	Y8	Z8	X9	Y9	Z9	

877	8.760	-190.53307	82.95599	-243.63493	98.65064	38.61969	-240.88907	-309.16284	-12.04176	369.72073	182.27718	31.79178	383.84082	-120.93710	1238.04504	-332.89178	-112.66788	607.66022	-380.39871	46.96066	602.91541	-378.29401	-126.99050	527.83527	562.35010	27.53042	517.21350	565.16211	
878	8.770	-186.24788	71.93848	-241.34595	97.12312	38.16875	-241.15912	-309.27737	-12.09855	369.76501	186.51567	22.43931	385.45026	-119.95952	1237.76099	-332.82755	-110.69128	607.16876	-380.01566	49.25347	602.75806	-377.96481	-124.88776	527.18292	562.88300	30.22293	516.19263	564.29431	
879	8.780	-182.20595	61.37757	-239.45160	96.80064	37.91502	-241.29729	-309.46747	-11.98822	369.76767	190.29701	12.91230	386.62125	-118.83089	1237.53357	-331.75409	-108.47967	606.73932	-379.29199	51.63967	602.77167	-377.22214	-122.42280	526.29517	563.47992	32.67397	515.65192	565.16083	
880	8.790	-178.41385	51.79808	-237.61490	96.38390	37.67385	-241.26634	-309.94385	-11.63404	369.77866	194.44580	4.73464	387.78015	-118.20289	1237.12744	-330.67004	-106.57311	606.94061	-378.43350	53.54771	602.60730	-376.15564	-119.78013	525.17767	564.56512	35.55358	515.12549	565.58130	
881	8.800	-174.75670	43.19515	-235.79013	96.03080	37.35969	-241.11092	-310.74460	-11.20653	369.85336	197.97249	-2.96704	388.71786	-117.10001	1236.50183	-329.37610	-104.38858	606.18964	-377.50381	56.10824	602.44165	-375.36511	-117.17638	524.41528	565.26483	38.49189	514.38464	566.62695	
882	8.810	-175.94449	44.79951	-239.17523	95.35640	36.98758	-241.40695	-312.30231	-10.07750	369.63644	200.81708	-9.20629	389.93369	-115.95337	1235.86755	-327.94250	-102.17097	605.82764	-376.24341	58.05878	602.35645	-374.22592	-114.13566	523.48712	566.41943	41.34842	513.25751	566.28156	
883	8.820	-176.91365	42.41413	-237.29547	94.97714	36.82026	-241.47858	-312.04266	-9.94860	369.77332	202.30821	-8.94635	387.62347	-115.53035	1235.38440	-326.53799	-99.70993	605.81744	-375.02042	60.16509	602.50482	-373.10883	-110.57655	522.52136	567.80634	44.58297	513.06049	568.29364	
884	8.830	-178.18802	44.40248	-238.23476	94.42101	36.67179	-241.61319	-311.71054	-9.15329	369.83514	201.83371	-10.76407	388.16498	-113.77284	1235.00952	-323.31049	-97.65135	606.36761	-373.54019	62.25404	602.71790	-371.90903	-107.01292	522.78589	569.27240	50.65956	514.73462	571.96344	
885	8.840	-177.85281	43.66214	-237.18825	94.43176	37.44235	-241.41197	-311.58463	-8.43944	369.98553	200.91406	-11.39270	388.91019	-111.91671	1235.48376	-323.04703	-95.44906	605.98730	-372.03915	64.93337	603.16974	-370.53070	-104.13413	523.81372	570.62781	53.61173	515.67694	573.43475	
886	8.850	-177.61279	43.74347	-235.37172	95.19840	40.66068	-239.86804	-308.02283	-5.12153	370.17319	200.11794	-12.31790	391.02191	-110.83865	1236.41125	-320.02808	-93.51514	606.93903	-370.77740	66.88585	603.69049	-369.49332	-101.24218	523.76288	572.07904	53.71776	514.87164	571.97992	
887	8.860	-177.93526	44.50820	-236.41742	94.96017	44.11469	-236.84793	-302.61212	-2.51195	372.08807	199.99055	-13.35594	388.81982	-108.52078	1237.34045	-318.72275	-91.88367	607.45337	-369.50626	68.65044	604.28003	-368.46933	-98.48804	523.31659	573.25702	56.63341	514.52576	572.99213	
888	8.870	-178.13879	44.48017	-234.49731	96.54375	52.46704	-235.83273	-295.38470	3.54105	373.03473	200.04939	-13.42256	390.77402	-105.42593	1237.73206	-316.88943	-90.36652	607.66577	-368.60425	69.67899	604.83160	-367.95908	-96.14655	523.01563	573.85339	62.17998	515.25256	575.78802	
889	8.880	-177.66711	44.11195	-234.26085	98.51904	62.25421	-235.00552	-289.20209	11.39536	373.39197	199.25714	-13.85654	389.21854	-104.00291	1238.19653	-315.37921	-89.43062	608.09473	-368.17545	71.00612	605.15015	-367.53235	-93.86349	522.34363	574.24988	65.16565	515.03864	576.03821	
890	8.890	-177.53810	43.94942	-233.22569	102.29692	74.20785	-235.80644	-282.71689	21.43056	373.08047	198.65508	-14.01750	389.80518	-101.09219	1238.77087	-315.08652	-88.49361	608.26422	-367.66968	71.65141	605.32153	-367.36682	-90.85495	521.51758	574.94464	64.22601	512.93005	574.06372	
891	8.900	-177.73311	43.68095	-232.81758	107.03822	87.18279	-237.09253	-277.80347	32.93755	372.73404	197.95334	-14.33383	389.60193	-100.17352	1239.31543	-314.12805	-87.84201	608.29694	-367.50998	72.08366	605.40607	-367.50449	-88.25840	521.01556	575.18231	66.99369	512.15662	574.02954	
892	8.910	-178.93100	43.80204	-232.83656	112.67761	100.94510	-238.96089	-273.16959	45.59761	372.52280	197.24886	-14.47523	389.36240	-100.10438	1239.15100	-313.23386	-86.75875	608.25458	-366.61981	72.59803	605.47986	-367.94601	-85.61151	519.97162	575.36084	69.82767	511.19238	573.69885	
893	8.920	-179.77849	43.77562	-232.72911	118.23640	114.08862	-240.81761	-267.23373	57.68867	373.19904	196.60898	-14.21719	389.08401	-100.61867	1238.80005	-312.85608	-86.66656	608.32880	-366.64053	72.95253	605.35901	-368.40561	-83.19243	519.16223	574.99768	72.39268	510.21606	573.50238	
894	8.930	-180.49989	43.14249	-232.76064	123.64687	126.61271	-242.63637	-260.74973	69.07767	374.00256	196.03091	-14.08455	389.20569	-100.72202	1238.44250	-312.38184	-87.45572	608.56836	-367.36588	73.07124	605.30072	-368.69501	-81.07480	518.35846	574.62561	74.74739	509.41858	572.83313	
895	8.940	-181.26549	42.68983	-233.04619	128.86804	138.37450	-244.43983	-252.71997	79.44466	374.72409	195.04495	-14.23634	388.96338	-100.90630	1238.40271	-312.40915	-87.72070	608.51172	-367.81250	72.74184	605.26624	-369.65005	-79.08968	518.02130	574.09375	77.09346	508.79733	571.98517	
896	8.950	-182.52701	42.80553	-233.04747	133.10741	149.04669	-246.70778	-244.23849	88.41670	375.15585	194.19112	-14.11004	388.77579	-100.42612	1238.65100	-312.81891	-87.94235	608.64581	-368.21573	72.09586	605.01392	-370.54718	-76.57153	517.72089	573.54492	79.53491	508.51288	571.01910	
897	8.960	-183.47147	42.56614	-233.31976	137.87134	158.58572	-249.07039	-235.50815	95.98734	375.12106	193.74008	-13.70109	388.47708	-99.95793	1238.86340	-313.21387	-88.94390	608.59058	-368.92010	71.60576	605.04889	-371.44681	-74.58654	517.11810	573.04407	81.65269	508.14978	570.02521	
